<svg width="275" height="94" viewBox="0 0 275 94" fill="none" xmlns="http://www.w3.org/2000/svg">
<path d="M0 0H275V94H0V0Z" fill="#002133"/>
<path d="M50.432 28.558C30.634 28.558 20.09 20.012 20.09 20.012C20.09 27.146 36.722 27.024 43.857 35.496C45.245 37.152 46.243 39.976 46.998 44.236C49.263 45.308 51.478 46.184 53.524 46.988C54.377 41.194 55.424 37.128 56.836 35.496C64.093 27.121 81.066 27.17 81.066 20.012C81.066 20.012 70.205 28.558 50.432 28.558Z" fill="white"/>
<path d="M50.432 26.635C51.4963 26.6348 52.5366 26.319 53.4214 25.7276C54.3061 25.1361 54.9957 24.2956 55.4028 23.3123C55.8099 22.329 55.9162 21.247 55.7084 20.2032C55.5006 19.1595 54.9879 18.2008 54.2352 17.4484C53.4825 16.6959 52.5236 16.1836 51.4798 15.9762C50.4359 15.7688 49.354 15.8755 48.3709 16.283C47.3877 16.6904 46.5474 17.3803 45.9563 18.2653C45.3652 19.1503 45.0498 20.1907 45.05 21.255C45.05 24.225 47.46 26.635 50.432 26.635ZM47.85 64.37C42.688 66.61 38.621 69.872 39.376 77.103C40.959 72.818 43.808 70.408 48.167 68.582C48.0716 67.1772 47.9659 65.7732 47.85 64.37ZM35.212 38.175C31.535 51.687 58.614 52.149 58.614 58.357C58.614 60.5 56.739 61.693 53.11 63.129C52.989 64.663 52.843 66.173 52.745 67.633C59.345 65.15 64.872 63.397 64.872 58.065C64.872 48.546 48.581 49.885 35.212 38.175Z" fill="white"/>
<path d="M52.818 55.12C51.601 65.88 50.992 77.03 50.505 82.29C49.531 75.887 49.117 63.69 47.899 53.27C49.604 53.926 51.308 54.535 52.818 55.12ZM59.661 37.469C59.929 37.663 60.221 37.834 60.538 37.979C60.83 38.126 61.146 38.272 61.488 38.369C61.828 38.467 62.145 38.564 62.461 38.637C62.778 38.71 63.119 38.735 63.46 38.735H63.581L63.703 38.71C63.752 38.71 63.776 38.71 63.825 38.686L63.947 38.661C64.02 38.637 64.117 38.613 64.19 38.589C64.263 38.564 64.36 38.539 64.434 38.515C64.75 38.394 65.043 38.248 65.31 38.077C65.578 37.907 65.846 37.687 66.04 37.444C66.236 37.201 66.406 36.933 66.504 36.616L66.601 36.324L66.844 36.519C66.991 36.641 67.21 36.714 67.429 36.739C67.649 36.763 67.892 36.763 68.135 36.763C68.598 36.738 69.085 36.641 69.572 36.543C70.035 36.446 70.522 36.3 70.984 36.153C71.447 36.008 71.91 35.813 72.348 35.618C72.568 35.521 72.762 35.423 72.957 35.278C73.152 35.156 73.322 34.985 73.517 34.839C73.882 34.523 74.199 34.182 74.491 33.817C74.783 33.452 75.051 33.062 75.271 32.648C75.368 32.453 75.465 32.234 75.538 32.015C75.611 31.82 75.635 31.601 75.66 31.406L75.684 30.871L76.244 30.968C76.39 30.992 76.609 30.992 76.804 30.944C77.024 30.92 77.243 30.846 77.462 30.774C77.9 30.627 78.362 30.433 78.801 30.238C79.239 30.018 79.653 29.8 80.067 29.532C80.262 29.41 80.481 29.264 80.652 29.142C80.822 29.02 81.017 28.85 81.163 28.728L81.212 28.68C81.236 28.655 81.236 28.631 81.26 28.631L81.358 28.509L81.455 28.387L81.505 28.314L81.553 28.241C81.626 28.144 81.674 28.047 81.748 27.949C81.821 27.852 81.869 27.754 81.918 27.633C82.138 27.219 82.356 26.781 82.551 26.343C82.746 25.904 82.892 25.442 83.014 25.003C83.038 24.955 83.038 24.882 83.063 24.833L83.111 24.663C83.111 24.613 83.136 24.541 83.16 24.493L83.184 24.322L83.209 24.249V24.151L83.233 24.005V23.737L83.257 23.202L83.769 22.982C84.085 22.861 84.377 22.642 84.621 22.398C84.889 22.131 85.084 21.814 85.278 21.473C85.473 21.133 85.644 20.743 85.765 20.353C85.912 19.963 86.009 19.55 86.106 19.112C86.204 18.673 86.276 18.26 86.35 17.822C86.423 17.383 86.472 16.945 86.52 16.507C86.618 15.63 86.667 14.729 86.667 13.829V13.342C86.667 13.439 86.691 13.585 86.764 13.755C86.837 13.926 86.984 14.096 87.154 14.194C87.324 14.291 87.47 14.315 87.567 14.34H87.835C87.909 14.316 87.957 14.316 88.03 14.291C88.103 14.267 88.103 14.242 88.103 14.267L88.055 14.291L87.981 14.34L87.348 14.656L87.032 14.802C86.934 14.852 86.812 14.9 86.715 14.948L86.058 15.241L84.743 15.825C84.523 15.922 84.305 15.995 84.085 16.093C83.866 16.19 83.647 16.288 83.428 16.361C81.6763 17.0501 79.8971 17.6672 78.095 18.211C77.632 18.333 77.194 18.479 76.731 18.601C76.269 18.722 75.831 18.844 75.368 18.966C74.905 19.087 74.467 19.185 74.004 19.306L73.322 19.452L72.64 19.599C70.8086 19.9844 68.9649 20.3089 67.112 20.572L64.361 20.962C64.141 20.986 63.898 21.035 63.679 21.059C63.557 21.084 63.459 21.108 63.338 21.132C63.24 21.157 63.118 21.182 63.021 21.205C62.6255 21.3108 62.2481 21.4749 61.901 21.692C61.171 22.155 60.537 22.788 60.001 23.494C59.734 23.859 59.491 24.224 59.271 24.614C59.174 24.809 59.076 25.004 58.979 25.222C58.8998 25.4184 58.8428 25.623 58.809 25.832L58.37 25.807C58.37 25.539 58.443 25.296 58.492 25.077C58.565 24.833 58.638 24.614 58.736 24.395C58.833 24.175 58.93 23.956 59.052 23.737C59.174 23.518 59.296 23.324 59.417 23.104C59.539 22.91 59.685 22.714 59.831 22.496C59.977 22.301 60.123 22.106 60.294 21.936C60.464 21.741 60.634 21.571 60.805 21.4C61 21.23 61.171 21.084 61.39 20.938C61.585 20.792 61.804 20.645 62.047 20.524L62.217 20.426C62.267 20.402 62.34 20.378 62.388 20.353C62.437 20.329 62.51 20.305 62.583 20.28C62.656 20.256 62.705 20.232 62.778 20.207C62.9 20.183 63.021 20.134 63.143 20.11C63.265 20.086 63.387 20.037 63.484 20.012C63.727 19.964 63.947 19.915 64.166 19.842C65.091 19.647 65.992 19.477 66.893 19.282L69.596 18.698C70.497 18.503 71.398 18.259 72.275 18.04C73.175 17.821 74.052 17.554 74.929 17.31C75.806 17.042 76.683 16.774 77.559 16.482L78.874 16.044C79.312 15.898 79.726 15.728 80.164 15.581L81.431 15.095C81.869 14.925 82.283 14.754 82.697 14.583C83.111 14.413 83.55 14.218 83.963 14.023L84.597 13.731C84.792 13.634 85.011 13.536 85.23 13.439L85.839 13.147C85.936 13.098 86.033 13.049 86.155 13.001L86.447 12.855L87.057 12.538L87.129 12.489L87.178 12.465L87.275 12.416C87.348 12.392 87.397 12.368 87.495 12.344C87.5908 12.3192 87.6912 12.3192 87.787 12.344C87.908 12.344 88.055 12.392 88.225 12.49C88.395 12.587 88.542 12.757 88.639 12.952C88.712 13.122 88.736 13.269 88.736 13.39V13.926C88.736 14.413 88.712 14.876 88.688 15.362C88.663 15.849 88.615 16.312 88.566 16.799C88.444 17.749 88.298 18.722 88.03 19.672C87.9043 20.1545 87.7415 20.6266 87.543 21.084C87.348 21.546 87.129 22.034 86.837 22.471C86.691 22.691 86.545 22.91 86.374 23.129C86.2722 23.2229 86.1826 23.329 86.107 23.445L85.96 23.591L85.814 23.737C85.3812 24.118 84.8762 24.4081 84.329 24.59L84.865 23.835C84.84 24.175 84.792 24.468 84.718 24.76L84.67 24.955C84.645 25.028 84.621 25.076 84.597 25.15L84.524 25.344C84.499 25.417 84.474 25.466 84.451 25.539C84.256 26.05 84.061 26.537 83.817 27.024C83.574 27.487 83.33 27.974 83.038 28.412C82.965 28.534 82.892 28.631 82.819 28.752C82.746 28.874 82.673 28.972 82.576 29.093L82.503 29.191L82.429 29.288L82.283 29.458C82.235 29.508 82.186 29.58 82.113 29.629L82.04 29.702L81.942 29.775C81.723 29.97 81.48 30.14 81.261 30.287C81.041 30.433 80.798 30.579 80.579 30.7C80.1205 30.9595 79.6489 31.1952 79.166 31.406C78.679 31.601 78.192 31.796 77.656 31.942C77.3834 32.0127 77.1074 32.0694 76.829 32.112C76.756 32.112 76.683 32.137 76.609 32.137H76.147C76.0637 32.1325 75.9816 32.116 75.903 32.088L76.488 31.65C76.4606 31.9413 76.3951 32.2278 76.293 32.502C76.195 32.77 76.073 33.013 75.928 33.257C75.6555 33.7119 75.3458 34.1433 75.002 34.547C74.662 34.937 74.272 35.302 73.882 35.643C73.687 35.813 73.468 35.959 73.225 36.105C73.103 36.178 73.005 36.251 72.859 36.3C72.713 36.349 72.616 36.422 72.494 36.47C72.007 36.665 71.544 36.836 71.033 36.957C70.546 37.103 70.059 37.225 69.547 37.322C69.0421 37.4266 68.5285 37.4836 68.013 37.492C67.746 37.492 67.478 37.492 67.21 37.42C67.1422 37.4182 67.0756 37.4015 67.015 37.371C66.991 37.371 66.942 37.347 66.918 37.347C66.893 37.347 66.844 37.322 66.82 37.322C66.6749 37.2682 66.5422 37.1856 66.43 37.079L66.771 36.982C66.65 37.322 66.431 37.639 66.187 37.907C65.9422 38.1726 65.6541 38.3948 65.335 38.564C65.018 38.734 64.702 38.881 64.361 38.978C64.263 39.002 64.191 39.027 64.117 39.051C64.02 39.075 63.947 39.1 63.849 39.1L63.728 39.124C63.678 39.124 63.63 39.124 63.606 39.148L63.46 39.173H63.338C62.973 39.173 62.632 39.124 62.291 39.027C61.9618 38.936 61.6368 38.8302 61.317 38.71C61 38.589 60.684 38.418 60.391 38.272C60.099 38.102 59.807 37.907 59.539 37.712L59.661 37.469ZM40.886 37.542C40.618 37.761 40.326 37.932 40.034 38.102C39.741 38.272 39.424 38.418 39.108 38.54C38.7908 38.6672 38.4654 38.7728 38.134 38.856C37.794 38.929 37.452 39.002 37.087 39.002H36.965L36.819 38.978C36.771 38.978 36.722 38.978 36.697 38.954H36.527C36.43 38.954 36.357 38.905 36.259 38.905C36.177 38.884 36.096 38.8597 36.016 38.832C35.6773 38.7297 35.3507 38.5909 35.042 38.418C34.7226 38.2488 34.4342 38.0266 34.189 37.761C33.946 37.493 33.727 37.176 33.605 36.836L33.945 36.933C33.825 37.03 33.702 37.128 33.556 37.176C33.532 37.176 33.483 37.201 33.459 37.201C33.434 37.201 33.386 37.225 33.361 37.225C33.288 37.249 33.24 37.249 33.167 37.274C32.9017 37.3225 32.6326 37.3469 32.363 37.347C31.8475 37.3386 31.3339 37.2816 30.829 37.177C30.3276 37.0809 29.8316 36.9587 29.343 36.811C28.856 36.665 28.369 36.519 27.883 36.324C27.761 36.276 27.639 36.227 27.517 36.154C27.395 36.081 27.273 36.032 27.152 35.959C26.932 35.813 26.713 35.667 26.494 35.496C26.0855 35.1688 25.7103 34.802 25.374 34.401C25.0194 34.0061 24.7092 33.5735 24.449 33.111C24.327 32.867 24.181 32.624 24.083 32.356C23.9813 32.0817 23.916 31.7953 23.889 31.504L24.473 31.942C24.376 31.966 24.303 31.991 24.23 31.991H23.766C23.694 31.991 23.621 31.991 23.548 31.966C23.2673 31.9352 22.9901 31.8783 22.72 31.796C22.2079 31.6429 21.704 31.464 21.21 31.26C20.723 31.066 20.26 30.822 19.798 30.554C19.554 30.433 19.335 30.287 19.116 30.14C18.896 29.994 18.653 29.848 18.434 29.63L18.337 29.556L18.094 29.313L17.947 29.143L17.801 28.947C17.703 28.85 17.631 28.728 17.557 28.607C17.484 28.485 17.411 28.387 17.338 28.266C17.0596 27.8139 16.7994 27.3509 16.558 26.878C16.315 26.416 16.121 25.928 15.926 25.393C15.901 25.32 15.877 25.271 15.853 25.198L15.78 25.003C15.755 24.93 15.731 24.882 15.707 24.809L15.657 24.614C15.5794 24.311 15.5308 24.0012 15.512 23.689L16.048 24.443C15.5024 24.2574 14.9978 23.9681 14.562 23.591L14.27 23.299C14.168 23.2051 14.078 23.099 14.002 22.983C13.832 22.763 13.662 22.544 13.539 22.325C13.247 21.887 13.028 21.4 12.833 20.938C12.6382 20.4791 12.4755 20.0073 12.346 19.526C12.0853 18.5855 11.906 17.6243 11.81 16.653C11.762 16.166 11.713 15.703 11.689 15.216C11.664 14.729 11.64 14.266 11.64 13.78V13.244C11.64 13.123 11.664 12.976 11.737 12.806C11.8269 12.6148 11.9708 12.4542 12.151 12.344C12.321 12.246 12.468 12.222 12.59 12.197H12.882C12.979 12.222 13.028 12.247 13.101 12.27C13.1364 12.2798 13.1695 12.2968 13.198 12.32L13.248 12.344L13.32 12.392L13.929 12.709L14.221 12.855C14.319 12.903 14.416 12.952 14.538 13.001L15.147 13.293C15.341 13.39 15.56 13.488 15.78 13.585L16.413 13.877C16.827 14.072 17.241 14.242 17.679 14.437C18.093 14.607 18.531 14.802 18.945 14.948L19.578 15.192L20.212 15.435C20.65 15.605 21.064 15.752 21.502 15.898L22.16 16.118L22.817 16.336C23.694 16.628 24.57 16.896 25.447 17.164C26.3256 17.4299 27.2109 17.6733 28.102 17.894C28.978 18.114 29.879 18.357 30.78 18.552L33.483 19.136C34.384 19.331 35.31 19.501 36.211 19.696C36.43 19.745 36.673 19.793 36.892 19.866C37.014 19.891 37.112 19.916 37.233 19.964C37.355 19.988 37.477 20.037 37.599 20.061C37.647 20.085 37.72 20.11 37.793 20.134C37.842 20.158 37.915 20.183 37.988 20.207C38.037 20.232 38.11 20.256 38.158 20.28L38.329 20.378C38.549 20.499 38.767 20.645 38.986 20.791C39.181 20.938 39.376 21.108 39.571 21.254C39.766 21.424 39.936 21.595 40.082 21.79C40.252 21.985 40.399 22.155 40.545 22.35C40.691 22.544 40.837 22.74 40.959 22.958C41.081 23.153 41.202 23.372 41.324 23.591C41.446 23.811 41.544 24.03 41.641 24.249C41.738 24.468 41.811 24.711 41.884 24.93C41.957 25.174 42.006 25.417 42.006 25.66L41.568 25.685C41.5341 25.4763 41.4771 25.2721 41.398 25.076C41.3204 24.8643 41.2222 24.6606 41.105 24.468C40.899 24.0716 40.6545 23.6965 40.375 23.348C39.839 22.642 39.181 21.985 38.475 21.546C38.11 21.327 37.72 21.132 37.355 21.059C37.258 21.035 37.135 21.011 37.038 20.986C36.9252 20.9592 36.8119 20.9348 36.698 20.913C36.4728 20.867 36.2451 20.8346 36.016 20.816L33.264 20.426C31.4111 20.1629 29.5674 19.8383 27.736 19.453L27.054 19.306L26.373 19.16C25.91 19.063 25.471 18.941 25.009 18.82C24.546 18.698 24.108 18.576 23.645 18.454C23.183 18.333 22.745 18.186 22.282 18.064C20.4901 17.5755 18.7259 16.9907 16.997 16.312C16.778 16.239 16.559 16.142 16.34 16.044C16.12 15.947 15.901 15.874 15.682 15.776L13.71 14.9C13.612 14.851 13.49 14.802 13.393 14.754L12.468 14.291L12.395 14.242L12.346 14.218C12.322 14.218 12.346 14.218 12.419 14.242C12.4795 14.2729 12.5461 14.2899 12.614 14.292C12.687 14.292 12.784 14.316 12.882 14.292C13.0313 14.2839 13.175 14.2329 13.296 14.145C13.4682 14.0429 13.6045 13.8899 13.686 13.707C13.758 13.537 13.783 13.39 13.783 13.293V13.828C13.807 14.729 13.856 15.63 13.929 16.507C13.978 16.945 14.026 17.383 14.099 17.821C14.172 18.259 14.246 18.698 14.343 19.111C14.44 19.526 14.563 19.939 14.683 20.353C14.806 20.743 14.976 21.133 15.171 21.473C15.366 21.814 15.585 22.131 15.828 22.398C16.072 22.666 16.364 22.861 16.681 22.983L17.192 23.202L17.216 23.737V24.005L17.241 24.151V24.249L17.29 24.346L17.314 24.516C17.314 24.566 17.338 24.614 17.363 24.686L17.411 24.857C17.411 24.906 17.436 24.955 17.46 25.027C17.582 25.49 17.752 25.928 17.923 26.367C18.117 26.805 18.313 27.243 18.556 27.657C18.604 27.755 18.677 27.852 18.726 27.974C18.799 28.071 18.848 28.168 18.921 28.266L18.97 28.339L19.018 28.412L19.213 28.655C19.213 28.68 19.238 28.704 19.262 28.704L19.311 28.753C19.457 28.899 19.651 29.045 19.822 29.167C20.017 29.313 20.212 29.434 20.406 29.557C20.82 29.824 21.259 30.043 21.673 30.262C22.111 30.482 22.549 30.652 23.012 30.798C23.232 30.871 23.45 30.92 23.669 30.968C23.889 30.992 24.084 31.017 24.229 30.992L24.789 30.895L24.814 31.431C24.814 31.625 24.863 31.821 24.936 32.039C25.009 32.259 25.106 32.453 25.204 32.672C25.423 33.086 25.691 33.476 25.983 33.841C26.275 34.206 26.616 34.571 26.957 34.864C27.127 35.01 27.322 35.156 27.517 35.302C27.712 35.448 27.907 35.545 28.126 35.642C28.564 35.837 29.026 36.032 29.489 36.178C29.952 36.324 30.439 36.47 30.902 36.568C31.365 36.665 31.852 36.763 32.339 36.787C32.582 36.787 32.801 36.787 33.045 36.763C33.264 36.738 33.483 36.665 33.629 36.543L33.873 36.349L33.97 36.641C34.068 36.933 34.238 37.225 34.433 37.469C34.628 37.712 34.895 37.931 35.163 38.102C35.431 38.272 35.723 38.418 36.04 38.54C36.113 38.564 36.186 38.589 36.283 38.613C36.357 38.637 36.454 38.661 36.527 38.686L36.649 38.71C36.697 38.71 36.722 38.735 36.771 38.735L36.892 38.759H37.014C37.331 38.783 37.672 38.735 38.012 38.661C38.329 38.589 38.67 38.491 38.986 38.394C39.303 38.296 39.62 38.15 39.936 38.004C40.228 37.858 40.545 37.688 40.813 37.493L40.886 37.542ZM105.408 66.9C105.408 67.492 105.291 68.018 105.056 68.477C104.826 68.931 104.506 69.307 104.095 69.607C103.692 69.904 103.239 70.1262 102.758 70.263C102.255 70.4041 101.735 70.4741 101.212 70.471H99.939V73.914C99.939 74.1 99.969 74.266 100.027 74.41C100.091 74.549 100.219 74.655 100.411 74.73C100.507 74.768 100.675 74.802 100.916 74.834C101.161 74.866 101.386 74.885 101.588 74.89V75.459H96.711V74.89C96.84 74.88 97.024 74.861 97.264 74.834C97.51 74.808 97.68 74.773 97.777 74.73C97.9239 74.6723 98.0457 74.5647 98.121 74.426C98.2014 74.2677 98.24 74.0914 98.233 73.914V65.714C98.233 65.528 98.206 65.36 98.153 65.21C98.1 65.061 97.974 64.949 97.776 64.874C97.5786 64.806 97.3749 64.7578 97.168 64.73C96.998 64.7014 96.8268 64.6801 96.655 64.666V64.1H101.845C102.902 64.1 103.759 64.356 104.415 64.868C105.077 65.375 105.408 66.053 105.408 66.902V66.9ZM102.974 68.838C103.155 68.581 103.275 68.317 103.334 68.045C103.393 67.767 103.422 67.519 103.422 67.3C103.422 66.996 103.385 66.686 103.31 66.372C103.248 66.0737 103.123 65.7922 102.942 65.547C102.75 65.2923 102.497 65.0909 102.205 64.962C101.901 64.824 101.522 64.754 101.068 64.754H99.938V69.774H100.756C101.332 69.774 101.799 69.686 102.157 69.51C102.52 69.329 102.792 69.104 102.974 68.838ZM118.486 75.458H113.769V74.89C113.897 74.88 114.081 74.864 114.322 74.842C114.567 74.821 114.735 74.789 114.826 74.746C114.973 74.6931 115.097 74.5914 115.178 74.458C115.253 74.325 115.291 74.154 115.291 73.946V69.902H109.949V73.858C109.949 74.044 109.978 74.202 110.037 74.33C110.101 74.458 110.224 74.57 110.405 74.666C110.496 74.714 110.656 74.762 110.886 74.81C111.121 74.858 111.305 74.885 111.439 74.89V75.459H106.722V74.89C106.85 74.88 107.034 74.864 107.274 74.842C107.52 74.821 107.688 74.789 107.779 74.746C107.926 74.6928 108.05 74.5912 108.131 74.458C108.206 74.325 108.243 74.154 108.243 73.946V65.747C108.243 65.577 108.209 65.421 108.139 65.283C108.063 65.1315 107.935 65.0121 107.779 64.946C107.609 64.8676 107.432 64.806 107.25 64.762C107.077 64.714 106.901 64.6819 106.722 64.666V64.1H111.439V64.668C111.289 64.673 111.105 64.698 110.886 64.74C110.723 64.7697 110.563 64.8097 110.405 64.86C110.324 64.8839 110.25 64.9248 110.186 64.98C110.123 65.0352 110.072 65.1034 110.037 65.18C109.978 65.33 109.949 65.493 109.949 65.669V69.192H115.291V65.749C115.291 65.579 115.256 65.423 115.186 65.285C115.11 65.1335 114.982 65.0141 114.826 64.948C114.682 64.878 114.506 64.818 114.298 64.764C114.125 64.716 113.948 64.6839 113.769 64.668V64.1H118.486V64.668C118.336 64.673 118.152 64.698 117.933 64.74C117.771 64.7698 117.61 64.8098 117.453 64.86C117.372 64.8837 117.297 64.9245 117.234 64.9797C117.17 65.0349 117.119 65.1033 117.084 65.18C117.026 65.33 116.996 65.493 116.996 65.669V73.859C116.996 74.046 117.026 74.204 117.084 74.332C117.148 74.46 117.271 74.572 117.453 74.668C117.544 74.716 117.704 74.764 117.933 74.812C118.168 74.86 118.352 74.887 118.486 74.892V75.461V75.458ZM129.834 64.666C129.686 64.6854 129.54 64.723 129.401 64.778C129.251 64.82 129.108 64.8848 128.977 64.97C128.768 65.098 128.627 65.197 128.552 65.267C128.477 65.336 128.333 65.517 128.12 65.811C127.709 66.3885 127.325 66.9841 126.967 67.596C126.614 68.2 126.174 68.966 125.645 69.894C125.448 70.236 125.317 70.511 125.253 70.719C125.189 70.927 125.157 71.229 125.157 71.624V73.794C125.157 73.986 125.194 74.154 125.269 74.298C125.349 74.437 125.482 74.548 125.669 74.634C125.781 74.677 125.982 74.73 126.27 74.794C126.558 74.853 126.79 74.885 126.967 74.89V75.459H121.649V74.89C121.799 74.88 122.023 74.861 122.322 74.834C122.621 74.802 122.829 74.762 122.946 74.714C123.139 74.634 123.269 74.524 123.339 74.386C123.414 74.247 123.451 74.076 123.451 73.874V71.111C123.451 71.026 123.398 70.871 123.291 70.647C123.189 70.417 123.067 70.164 122.922 69.887C122.602 69.267 122.247 68.597 121.857 67.877C121.468 67.157 121.129 66.54 120.84 66.027C120.706 65.7827 120.548 65.5523 120.368 65.339C120.232 65.1823 120.076 65.0447 119.903 64.93C119.759 64.8438 119.603 64.7816 119.439 64.746C119.281 64.7064 119.12 64.6796 118.958 64.666V64.1H123.803V64.668C123.259 64.678 122.874 64.716 122.65 64.78C122.426 64.844 122.314 64.935 122.314 65.052C122.321 65.1102 122.337 65.1669 122.362 65.22C122.394 65.3 122.439 65.402 122.498 65.525C122.567 65.664 122.65 65.824 122.746 66.005C123.086 66.6548 123.433 67.3009 123.787 67.943L124.812 69.784C125.651 68.434 126.289 67.382 126.726 66.63C127.169 65.872 127.391 65.418 127.391 65.269C127.393 65.2123 127.382 65.156 127.358 65.1044C127.335 65.0528 127.299 65.0075 127.255 64.972C127.148 64.8893 127.025 64.8294 126.894 64.796C126.729 64.7517 126.56 64.7249 126.39 64.716C126.208 64.7 126.04 64.684 125.885 64.668V64.1H129.834V64.668V64.666ZM137.257 70.246C137.497 70.513 137.674 70.807 137.786 71.127C137.903 71.442 137.962 71.81 137.962 72.232C137.962 73.236 137.591 74.063 136.849 74.714C136.107 75.365 135.186 75.691 134.086 75.691C133.57 75.6897 133.057 75.6115 132.564 75.459C132.105 75.32 131.664 75.1263 131.251 74.882L130.907 75.467H130.266L130.154 71.576H130.803C130.936 72.056 131.091 72.491 131.267 72.881C131.448 73.265 131.686 73.625 131.98 73.961C132.257 74.277 132.58 74.527 132.949 74.714C133.322 74.901 133.755 74.994 134.246 74.994C134.614 74.994 134.935 74.946 135.207 74.85C135.485 74.754 135.709 74.618 135.88 74.442C136.051 74.266 136.176 74.06 136.256 73.825C136.346 73.5597 136.389 73.281 136.384 73.001C136.385 72.5505 136.251 72.11 136 71.736C135.744 71.341 135.362 71.042 134.855 70.839C134.459 70.6816 134.061 70.5296 133.661 70.383C133.269 70.2356 132.882 70.0755 132.5 69.903C131.86 69.614 131.36 69.238 131.003 68.773C130.65 68.303 130.474 67.693 130.474 66.94C130.474 66.508 130.562 66.105 130.738 65.73C130.915 65.357 131.166 65.024 131.491 64.73C131.801 64.453 132.167 64.236 132.588 64.082C133.01 63.922 133.451 63.842 133.91 63.842C134.433 63.842 134.9 63.922 135.311 64.082C135.728 64.242 136.107 64.429 136.448 64.642L136.777 64.098H137.417L137.481 67.868H136.833C136.719 67.4485 136.586 67.0346 136.432 66.628C136.295 66.2452 136.103 65.8839 135.864 65.555C135.634 65.245 135.354 65 135.023 64.818C134.692 64.631 134.286 64.538 133.806 64.538C133.298 64.538 132.866 64.701 132.508 65.026C132.337 65.174 132.201 65.3573 132.108 65.5634C132.016 65.7694 131.969 65.9931 131.972 66.219C131.972 66.71 132.086 67.119 132.316 67.444C132.546 67.764 132.879 68.029 133.317 68.237C133.707 68.424 134.089 68.587 134.462 68.725C134.841 68.859 135.207 69.003 135.559 69.158C135.88 69.296 136.187 69.454 136.48 69.63C136.779 69.806 137.038 70.011 137.257 70.246ZM144.36 75.459H139.243V74.89C139.387 74.88 139.596 74.864 139.868 74.842C140.14 74.821 140.332 74.789 140.444 74.746C140.598 74.6938 140.732 74.5962 140.829 74.466C140.909 74.343 140.949 74.176 140.949 73.962V65.731C140.955 65.5717 140.925 65.4132 140.861 65.267C140.802 65.138 140.663 65.032 140.444 64.947C140.246 64.8717 140.043 64.8125 139.836 64.77C139.642 64.7191 139.443 64.6843 139.243 64.666V64.1H144.36V64.668C144.162 64.6768 143.964 64.6982 143.768 64.732C143.565 64.7584 143.364 64.8012 143.167 64.86C142.964 64.924 142.828 65.028 142.759 65.173C142.689 65.317 142.655 65.477 142.655 65.653V73.876C142.655 74.052 142.692 74.209 142.767 74.348C142.847 74.481 142.98 74.588 143.167 74.668C143.279 74.711 143.461 74.758 143.712 74.812C143.968 74.86 144.184 74.887 144.36 74.892V75.461V75.459ZM150.791 75.723C150.119 75.7243 149.454 75.5882 148.837 75.323C148.215 75.0539 147.654 74.6617 147.187 74.17C146.693 73.6379 146.307 73.0151 146.05 72.336C145.767 71.61 145.626 70.794 145.626 69.886C145.626 68.979 145.765 68.156 146.042 67.42C146.299 66.7135 146.69 66.0638 147.195 65.507C147.676 64.9819 148.263 64.5644 148.917 64.282C149.587 63.992 150.309 63.8445 151.039 63.849C151.6 63.849 152.107 63.919 152.561 64.058C153.016 64.1973 153.452 64.3935 153.858 64.642L154.187 64.098H154.827L154.899 68.148H154.243C154.145 67.7128 154.016 67.2851 153.858 66.868C153.711 66.4507 153.509 66.0549 153.258 65.691C153.019 65.3447 152.708 65.0549 152.345 64.842C151.977 64.6301 151.559 64.5222 151.135 64.53C150.618 64.53 150.134 64.645 149.686 64.874C149.243 65.104 148.858 65.443 148.533 65.891C148.223 66.323 147.98 66.873 147.804 67.541C147.62 68.2709 147.532 69.0214 147.54 69.774C147.54 70.5 147.63 71.167 147.812 71.776C147.999 72.379 148.263 72.91 148.605 73.369C148.947 73.823 149.35 74.178 149.814 74.434C150.284 74.69 150.807 74.818 151.384 74.818C151.816 74.818 152.214 74.752 152.577 74.618C152.94 74.479 153.255 74.298 153.522 74.074C153.789 73.839 154.024 73.572 154.227 73.274C154.429 72.974 154.595 72.649 154.723 72.296L155.324 72.584C154.865 73.711 154.256 74.517 153.498 75.003C152.74 75.483 151.837 75.723 150.791 75.723ZM166.92 75.459H162.187V74.89C162.603 74.864 162.948 74.81 163.22 74.73C163.498 74.65 163.636 74.551 163.636 74.434C163.634 74.3113 163.612 74.1898 163.572 74.074L162.627 71.528H158.647C158.498 71.901 158.375 72.227 158.279 72.504C158.188 72.782 158.105 73.038 158.031 73.274C157.961 73.503 157.913 73.689 157.886 73.834C157.863 73.95 157.849 74.0677 157.846 74.186C157.846 74.399 158.015 74.565 158.351 74.682C158.687 74.8 159.066 74.869 159.488 74.89V75.459H155.212V74.89C155.35 74.88 155.524 74.85 155.732 74.802C155.94 74.749 156.111 74.679 156.245 74.594C156.458 74.45 156.624 74.301 156.741 74.146C156.859 73.986 156.973 73.766 157.086 73.489C157.725 71.8912 158.355 70.2898 158.976 68.685L160.817 63.937H161.458L165.246 73.737C165.326 73.946 165.417 74.114 165.518 74.242C165.62 74.37 165.761 74.495 165.943 74.618C166.065 74.693 166.226 74.757 166.423 74.81C166.621 74.858 166.786 74.885 166.92 74.89V75.459ZM162.339 70.815L160.617 66.411L158.927 70.815H162.339ZM176.45 72.08L176.209 75.459H167.328V74.89C167.456 74.88 167.64 74.861 167.881 74.834C168.126 74.808 168.297 74.773 168.393 74.73C168.553 74.66 168.668 74.56 168.738 74.426C168.812 74.293 168.85 74.122 168.85 73.914V65.78C168.85 65.599 168.818 65.438 168.754 65.3C168.695 65.16 168.575 65.049 168.393 64.963C168.227 64.8833 168.052 64.8216 167.873 64.779C167.696 64.7233 167.513 64.6858 167.328 64.667V64.1H172.125V64.668C171.928 64.6796 171.733 64.7064 171.54 64.748C171.306 64.796 171.135 64.838 171.028 64.876C170.946 64.9011 170.869 64.9434 170.805 65.0001C170.74 65.0568 170.688 65.1267 170.652 65.205C170.587 65.359 170.555 65.525 170.555 65.701V73.331C170.555 73.683 170.571 73.958 170.603 74.156C170.631 74.3299 170.719 74.4885 170.852 74.604C170.975 74.7 171.156 74.764 171.396 74.796C171.642 74.823 171.984 74.836 172.421 74.836C172.619 74.836 172.824 74.831 173.038 74.82C173.252 74.81 173.454 74.788 173.647 74.756C173.833 74.724 174.004 74.681 174.159 74.628C174.293 74.586 174.414 74.5119 174.512 74.412C174.73 74.166 174.984 73.795 175.272 73.299C175.566 72.797 175.769 72.392 175.881 72.082H176.45V72.08ZM190.416 67.18H189.863C189.798 66.9449 189.71 66.717 189.599 66.5C189.479 66.239 189.34 65.9873 189.183 65.747C189.032 65.5138 188.855 65.299 188.654 65.107C188.467 64.92 188.286 64.813 188.11 64.787C187.902 64.762 187.694 64.7457 187.485 64.738C187.234 64.728 187.002 64.722 186.788 64.722H186.324V73.81C186.324 73.986 186.361 74.148 186.436 74.298C186.523 74.4527 186.662 74.5718 186.828 74.634C186.924 74.671 187.125 74.722 187.429 74.786C187.738 74.85 187.979 74.885 188.15 74.89V75.459H182.784V74.89C182.934 74.88 183.16 74.858 183.465 74.826C183.774 74.794 183.988 74.754 184.105 74.706C184.262 74.652 184.397 74.5481 184.49 74.41C184.575 74.277 184.618 74.1 184.618 73.882V64.722H184.153C183.988 64.722 183.782 64.727 183.537 64.738C183.301 64.7426 183.066 64.7587 182.832 64.786C182.656 64.807 182.472 64.914 182.28 65.106C182.093 65.293 181.919 65.506 181.759 65.747C181.597 65.9911 181.455 66.2483 181.335 66.516C181.232 66.7302 181.146 66.9522 181.078 67.18H180.518V64.1H190.416V67.182V67.18ZM203.101 75.459H198.384V74.89C198.512 74.88 198.696 74.864 198.937 74.842C199.182 74.821 199.35 74.789 199.441 74.746C199.588 74.6929 199.712 74.5913 199.794 74.458C199.868 74.325 199.906 74.154 199.906 73.946V69.902H194.564V73.858C194.564 74.044 194.594 74.202 194.652 74.33C194.716 74.458 194.839 74.57 195.021 74.666C195.111 74.714 195.272 74.762 195.501 74.81C195.736 74.858 195.92 74.885 196.054 74.89V75.459H191.337V74.89C191.465 74.88 191.649 74.864 191.889 74.842C192.135 74.821 192.303 74.789 192.394 74.746C192.541 74.6931 192.665 74.5914 192.746 74.458C192.821 74.325 192.858 74.154 192.858 73.946V65.747C192.858 65.577 192.824 65.421 192.754 65.283C192.678 65.1315 192.55 65.0121 192.394 64.946C192.224 64.8674 192.047 64.8058 191.865 64.762C191.692 64.714 191.516 64.6818 191.337 64.666V64.1H196.054V64.668C195.904 64.673 195.72 64.698 195.501 64.74C195.339 64.7696 195.178 64.8097 195.021 64.86C194.94 64.8837 194.865 64.9245 194.802 64.9797C194.738 65.0349 194.687 65.1033 194.652 65.18C194.594 65.33 194.564 65.493 194.564 65.669V69.192H199.906V65.749C199.906 65.579 199.871 65.423 199.802 65.285C199.725 65.1337 199.597 65.0144 199.441 64.948C199.297 64.878 199.121 64.818 198.913 64.764C198.74 64.716 198.563 64.6838 198.384 64.668V64.1H203.101V64.668C202.951 64.673 202.767 64.698 202.548 64.74C202.386 64.7698 202.225 64.8098 202.068 64.86C201.987 64.8837 201.913 64.9245 201.849 64.9798C201.785 65.035 201.735 65.1033 201.7 65.18C201.641 65.33 201.611 65.493 201.611 65.669V73.859C201.611 74.046 201.641 74.204 201.7 74.332C201.764 74.46 201.886 74.572 202.068 74.668C202.159 74.716 202.319 74.764 202.548 74.812C202.783 74.86 202.967 74.887 203.101 74.892V75.461V75.459ZM214.264 72.112L214.048 75.459H204.615V74.89C204.775 74.88 204.988 74.858 205.255 74.826C205.522 74.789 205.696 74.752 205.776 74.714C205.926 74.6533 206.05 74.5432 206.128 74.402C206.197 74.274 206.232 74.112 206.232 73.914V65.747C206.235 65.5879 206.205 65.4298 206.144 65.283C206.085 65.143 205.963 65.032 205.776 64.946C205.589 64.8626 205.392 64.8009 205.191 64.762C205.001 64.7168 204.809 64.6848 204.615 64.666V64.1H213.408V66.838H212.807C212.7 66.432 212.468 66.002 212.11 65.548C211.758 65.09 211.422 64.838 211.101 64.796C210.904 64.7721 210.707 64.756 210.509 64.748C210.279 64.738 210.017 64.732 209.724 64.732H207.938V69.248H209.219C209.63 69.248 209.929 69.21 210.116 69.136C210.308 69.056 210.477 68.925 210.621 68.743C210.754 68.556 210.854 68.3477 210.917 68.127C211.002 67.865 211.058 67.62 211.085 67.39H211.686V71.834H211.085C211.06 71.5581 211.001 71.2864 210.909 71.025C210.818 70.737 210.722 70.529 210.621 70.401C210.478 70.2089 210.28 70.0659 210.052 69.992C209.844 69.928 209.566 69.896 209.219 69.896H207.938V73.307C207.938 73.649 207.962 73.918 208.01 74.116C208.046 74.2943 208.145 74.4536 208.29 74.564C208.429 74.666 208.619 74.732 208.859 74.764C209.099 74.791 209.441 74.804 209.884 74.804H210.581C210.869 74.804 211.112 74.794 211.309 74.772C211.512 74.751 211.72 74.714 211.934 74.66C212.153 74.601 212.308 74.524 212.399 74.428C212.644 74.172 212.9 73.785 213.167 73.268C213.44 72.744 213.613 72.36 213.688 72.114H214.264V72.112ZM226.493 75.459H223.434C222.843 74.5261 222.228 73.6078 221.592 72.705C221.019 71.8927 220.426 71.0944 219.814 70.311H218.653V73.914C218.653 74.1 218.682 74.266 218.741 74.41C218.8 74.549 218.925 74.655 219.117 74.73C219.214 74.768 219.382 74.802 219.622 74.834C219.862 74.866 220.065 74.885 220.231 74.89V75.459H215.426V74.89C215.554 74.88 215.738 74.861 215.978 74.834C216.224 74.808 216.395 74.773 216.491 74.73C216.651 74.66 216.766 74.56 216.835 74.426C216.91 74.293 216.947 74.122 216.947 73.914V65.7C216.95 65.5312 216.923 65.3632 216.867 65.204C216.814 65.059 216.688 64.95 216.491 64.875C216.321 64.818 216.147 64.7752 215.97 64.747C215.79 64.7092 215.609 64.6825 215.426 64.667V64.1H220.671C221.152 64.1 221.603 64.15 222.024 64.252C222.446 64.348 222.828 64.505 223.17 64.724C223.501 64.938 223.765 65.218 223.962 65.564C224.16 65.906 224.259 66.32 224.259 66.806C224.259 67.244 224.192 67.63 224.059 67.966C223.929 68.2975 223.726 68.5957 223.466 68.839C223.226 69.069 222.937 69.269 222.601 69.44C222.243 69.6137 221.871 69.7556 221.488 69.864C222.048 70.606 222.513 71.231 222.881 71.738C223.255 72.245 223.712 72.861 224.251 73.588C224.486 73.908 224.697 74.145 224.883 74.3C225.076 74.45 225.265 74.572 225.452 74.668C225.591 74.738 225.764 74.791 225.973 74.828C226.181 74.866 226.354 74.887 226.493 74.892V75.461V75.459ZM222.281 66.988C222.281 66.299 222.083 65.755 221.688 65.355C221.293 64.949 220.735 64.746 220.014 64.746H218.653V69.622H219.702C220.439 69.622 221.053 69.387 221.544 68.917C222.035 68.442 222.281 67.799 222.281 66.988Z" fill="white"/>
<path d="M237.536 75.46H232.804V74.891C233.22 74.865 233.564 74.811 233.837 74.731C234.114 74.651 234.253 74.552 234.253 74.435C234.251 74.3123 234.229 74.1908 234.189 74.075L233.244 71.529H229.264C229.114 71.902 228.992 72.228 228.895 72.505L228.647 73.275C228.578 73.504 228.53 73.69 228.503 73.835C228.479 73.9509 228.466 74.0687 228.463 74.187C228.463 74.4 228.631 74.566 228.968 74.683C229.304 74.801 229.683 74.87 230.105 74.891V75.46H225.828V74.891C225.967 74.881 226.141 74.851 226.349 74.803C226.53 74.7611 226.702 74.6909 226.861 74.595C227.05 74.4736 227.218 74.3223 227.358 74.147C227.475 73.987 227.59 73.767 227.702 73.49C228.342 71.8925 228.972 70.2912 229.592 68.686L231.434 63.938H232.075L235.863 73.738C235.943 73.947 236.034 74.115 236.135 74.243C236.236 74.371 236.378 74.496 236.559 74.619C236.682 74.694 236.842 74.758 237.04 74.811C237.237 74.859 237.403 74.886 237.536 74.891V75.46ZM232.956 70.816L231.234 66.412L229.544 70.816H232.956ZM246.642 66.901C246.642 67.493 246.524 68.019 246.289 68.478C246.06 68.932 245.74 69.308 245.328 69.608C244.925 69.9054 244.473 70.1276 243.991 70.264C243.488 70.4051 242.968 70.4751 242.445 70.472H241.172V73.915C241.172 74.101 241.202 74.267 241.26 74.411C241.324 74.55 241.452 74.656 241.645 74.731C241.741 74.769 241.909 74.803 242.149 74.835C242.395 74.867 242.619 74.886 242.822 74.891V75.46H237.945V74.891C238.073 74.881 238.257 74.862 238.497 74.835C238.743 74.809 238.914 74.774 239.01 74.731C239.17 74.661 239.285 74.561 239.354 74.427C239.429 74.294 239.466 74.123 239.466 73.915V65.715C239.466 65.529 239.44 65.361 239.386 65.211C239.333 65.062 239.207 64.95 239.01 64.875C238.812 64.8069 238.608 64.7587 238.401 64.731C238.231 64.7024 238.061 64.6811 237.889 64.667V64.1H243.078C244.135 64.1 244.992 64.356 245.649 64.868C246.311 65.375 246.642 66.052 246.642 66.901ZM244.207 68.839C244.389 68.582 244.509 68.318 244.568 68.046C244.626 67.768 244.656 67.52 244.656 67.301C244.656 66.997 244.618 66.687 244.544 66.373C244.482 66.0747 244.356 65.7934 244.175 65.548C243.984 65.2931 243.73 65.0916 243.438 64.963C243.134 64.825 242.755 64.755 242.301 64.755H241.172V69.775H241.989C242.566 69.775 243.033 69.687 243.39 69.511C243.753 69.33 244.026 69.105 244.207 68.839ZM257.693 64.667C257.545 64.6863 257.4 64.724 257.261 64.779C257.11 64.821 256.967 64.8858 256.836 64.971C256.686 65.0578 256.545 65.1571 256.412 65.268C256.337 65.337 256.193 65.518 255.979 65.812C255.563 66.399 255.179 66.994 254.826 67.597C254.474 68.201 254.033 68.967 253.505 69.895C253.307 70.237 253.177 70.512 253.112 70.72C253.048 70.928 253.016 71.23 253.016 71.625V73.795C253.016 73.987 253.054 74.155 253.128 74.299C253.209 74.438 253.342 74.549 253.529 74.635C253.641 74.678 253.841 74.731 254.13 74.795C254.418 74.854 254.65 74.886 254.826 74.891V75.46H249.509V74.891C249.658 74.881 249.882 74.862 250.181 74.835C250.48 74.803 250.689 74.763 250.806 74.715C250.998 74.635 251.129 74.525 251.198 74.387C251.273 74.248 251.311 74.077 251.311 73.875V71.112C251.311 71.027 251.257 70.872 251.15 70.648C251.049 70.418 250.926 70.165 250.782 69.888C250.109 68.5901 249.415 67.3033 248.7 66.028C248.565 65.7836 248.407 65.5532 248.227 65.34C248.092 65.1831 247.936 65.0455 247.763 64.931C247.619 64.8446 247.462 64.7824 247.298 64.747C247.14 64.7074 246.98 64.6806 246.818 64.667V64.1H251.663V64.668C251.118 64.678 250.734 64.716 250.51 64.78C250.286 64.844 250.173 64.935 250.173 65.052C250.18 65.1102 250.196 65.1669 250.221 65.22C250.254 65.3 250.299 65.402 250.358 65.525C250.427 65.664 250.51 65.824 250.606 66.005C250.702 66.181 250.793 66.352 250.878 66.518C251.129 66.993 251.385 67.468 251.647 67.943L252.672 69.784C253.324 68.7412 253.962 67.6897 254.586 66.63C255.029 65.872 255.251 65.418 255.251 65.269C255.253 65.2124 255.241 65.1561 255.218 65.1045C255.194 65.053 255.159 65.0076 255.115 64.972C255.008 64.8893 254.885 64.8294 254.754 64.796C254.589 64.7518 254.42 64.725 254.25 64.716C254.068 64.7 253.9 64.684 253.745 64.668V64.1H257.693V64.667ZM102.739 53.03C101.806 53.0373 100.88 52.8788 100.003 52.562C99.177 52.2582 98.4214 51.7897 97.782 51.185C97.163 50.597 96.676 49.873 96.32 49.011C95.964 48.143 95.786 47.19 95.786 46.153C95.786 45.123 95.964 44.17 96.32 43.295C96.6664 42.4383 97.1828 41.6606 97.838 41.009C98.4929 40.367 99.275 39.8693 100.134 39.548C101.048 39.1942 102.021 39.0161 103.002 39.023C103.739 39.023 104.411 39.113 105.017 39.295C105.549 39.4408 106.064 39.6419 106.554 39.895L107.135 39.379H107.95L108.034 44.232H107.21C106.741 42.752 106.179 41.665 105.523 40.972C104.867 40.279 104.067 39.932 103.124 39.932C101.949 39.932 101.056 40.45 100.443 41.487C99.831 42.517 99.525 43.967 99.525 45.835C99.525 46.89 99.628 47.793 99.835 48.542C100.047 49.286 100.322 49.885 100.659 50.342C101.021 50.816 101.449 51.166 101.943 51.391C102.436 51.609 102.983 51.719 103.583 51.719C104.457 51.719 105.235 51.481 105.916 51.006C106.603 50.532 107.228 49.813 107.791 48.851L108.596 49.339C108.343 49.8636 108.036 50.3597 107.678 50.819C107.334 51.25 106.938 51.622 106.488 51.934C105.984 52.2825 105.432 52.5542 104.848 52.74C104.254 52.933 103.552 53.03 102.739 53.03ZM125.737 52.674H118.549V51.944L119.233 51.887C119.533 51.862 119.739 51.825 119.851 51.775C120.083 51.681 120.242 51.559 120.329 51.409C120.423 51.227 120.469 51.0238 120.461 50.819V46.238H114.782V50.716C114.782 50.928 114.825 51.119 114.913 51.287C115.006 51.457 115.163 51.587 115.381 51.681C115.5 51.731 115.703 51.784 115.99 51.841C116.278 51.896 116.512 51.931 116.693 51.943V52.674H109.505V51.944C109.662 51.937 109.89 51.918 110.19 51.887C110.496 51.85 110.718 51.806 110.855 51.756C111.08 51.675 111.236 51.553 111.324 51.391C111.415 51.2077 111.459 51.0053 111.455 50.801V41.394C111.461 41.2024 111.419 41.0123 111.333 40.841C111.258 40.691 111.099 40.56 110.855 40.447C110.626 40.3511 110.387 40.2791 110.143 40.232C109.933 40.1787 109.72 40.138 109.505 40.11V39.38H116.693V40.11C116.46 40.1278 116.229 40.1592 116 40.204C115.731 40.254 115.525 40.3 115.381 40.344C115.138 40.425 114.975 40.557 114.894 40.738C114.819 40.9157 114.78 41.107 114.782 41.3V45.272H120.461V41.394C120.467 41.2024 120.425 41.0123 120.339 40.841C120.258 40.691 120.095 40.56 119.851 40.447C119.64 40.3564 119.42 40.2874 119.195 40.241C118.983 40.1835 118.767 40.1397 118.549 40.11V39.38H125.737V40.11C125.537 40.122 125.312 40.15 125.062 40.194C124.812 40.232 124.587 40.282 124.387 40.344C124.15 40.425 123.99 40.554 123.909 40.728C123.827 40.9074 123.785 41.1027 123.787 41.3V50.716C123.787 50.941 123.828 51.131 123.909 51.287C123.99 51.444 124.15 51.575 124.387 51.681C124.537 51.744 124.753 51.8 125.034 51.85C125.321 51.9 125.555 51.93 125.737 51.943V52.674ZM134.349 52.674H126.974V51.944L127.714 51.887C128.045 51.862 128.273 51.825 128.398 51.775C128.629 51.681 128.785 51.559 128.867 51.409C128.954 51.253 128.998 51.056 128.998 50.819V41.394C128.998 41.181 128.957 40.994 128.876 40.831C128.795 40.669 128.636 40.538 128.398 40.438C128.182 40.3564 127.96 40.2935 127.733 40.25C127.483 40.1894 127.229 40.1427 126.974 40.11V39.38H134.349V40.11C134.114 40.1343 133.88 40.1623 133.646 40.194C133.405 40.2171 133.166 40.264 132.934 40.334C132.69 40.416 132.528 40.544 132.447 40.719C132.363 40.9005 132.321 41.0989 132.325 41.299V50.716C132.325 50.941 132.365 51.134 132.447 51.296C132.534 51.453 132.696 51.581 132.934 51.681C133.065 51.737 133.281 51.793 133.58 51.85C133.887 51.9 134.143 51.93 134.349 51.943V52.674ZM150.861 52.674H145.763C145.057 51.5806 144.323 50.5059 143.561 49.451C142.865 48.5046 142.14 47.5798 141.387 46.678H140.871V50.716C140.871 50.941 140.912 51.131 140.993 51.287C141.081 51.444 141.243 51.575 141.481 51.681C141.599 51.731 141.784 51.784 142.033 51.841C142.29 51.891 142.508 51.925 142.689 51.943V52.674H135.595V51.944L136.308 51.868C136.607 51.831 136.82 51.788 136.945 51.738C137.182 51.638 137.342 51.512 137.423 51.362C137.504 51.206 137.545 51.01 137.545 50.772V41.394C137.545 41.169 137.51 40.981 137.441 40.831C137.373 40.681 137.207 40.551 136.945 40.438C136.745 40.357 136.507 40.288 136.233 40.232C136.021 40.1864 135.809 40.1457 135.595 40.11V39.38H143.055C144.723 39.38 145.988 39.642 146.85 40.166C147.719 40.685 148.153 41.472 148.153 42.527C148.153 43.457 147.884 44.207 147.347 44.776C146.816 45.338 146.004 45.778 144.91 46.096L146.391 48.008C146.976 48.7524 147.566 49.4924 148.162 50.228C148.356 50.472 148.618 50.772 148.95 51.128C149.287 51.478 149.584 51.694 149.84 51.775C149.983 51.819 150.165 51.855 150.383 51.887C150.608 51.918 150.768 51.937 150.861 51.943V52.674ZM144.479 42.79C144.479 41.903 144.229 41.256 143.73 40.85C143.236 40.438 142.53 40.232 141.612 40.232H140.871V45.797H141.584C142.502 45.797 143.214 45.557 143.72 45.076C144.226 44.595 144.479 43.833 144.479 42.79ZM163.194 40.86C163.857 41.4692 164.387 42.209 164.75 43.033C165.137 43.883 165.331 44.851 165.331 45.938C165.335 46.8811 165.17 47.8174 164.843 48.702C164.538 49.5447 164.059 50.314 163.438 50.96C162.791 51.6174 162.02 52.1395 161.17 52.496C160.301 52.859 159.267 53.04 158.068 53.04C157.099 53.04 156.184 52.88 155.322 52.562C154.479 52.2548 153.705 51.7834 153.045 51.175C152.386 50.5683 151.859 49.8315 151.499 49.011C151.117 48.161 150.927 47.215 150.927 46.171C150.927 45.085 151.111 44.101 151.48 43.221C151.833 42.3659 152.356 41.5913 153.017 40.944C153.673 40.3174 154.451 39.8327 155.303 39.52C156.207 39.1796 157.167 39.0081 158.133 39.014C159.127 39.014 160.058 39.176 160.926 39.501C161.763 39.8027 162.533 40.2649 163.194 40.86ZM160.786 50.37C161.08 49.7592 161.286 49.1092 161.395 48.44C161.52 47.721 161.582 46.909 161.582 46.003C161.582 45.235 161.526 44.488 161.413 43.764C161.324 43.0912 161.138 42.4348 160.861 41.815C160.592 41.247 160.236 40.791 159.792 40.447C159.349 40.104 158.796 39.932 158.133 39.932C157.003 39.932 156.144 40.469 155.556 41.543C154.969 42.612 154.675 44.123 154.675 46.078C154.675 46.908 154.738 47.693 154.863 48.43C154.994 49.167 155.197 49.81 155.472 50.36C155.753 50.916 156.109 51.35 156.54 51.662C156.971 51.968 157.502 52.122 158.133 52.122C158.752 52.122 159.283 51.965 159.727 51.652C160.17 51.341 160.523 50.913 160.786 50.37ZM179.116 42.705C179.116 43.455 178.96 44.101 178.647 44.645C178.34 45.1827 177.902 45.6338 177.373 45.956C176.778 46.3192 176.125 46.5763 175.442 46.716C174.724 46.871 173.915 46.949 173.015 46.949H171.928V50.688C171.928 50.913 171.969 51.11 172.05 51.278C172.137 51.441 172.3 51.572 172.537 51.672C172.662 51.722 172.865 51.775 173.146 51.831C173.427 51.887 173.665 51.925 173.859 51.943V52.674H166.652V51.944L167.374 51.868C167.673 51.831 167.883 51.788 168.001 51.738C168.245 51.638 168.404 51.515 168.479 51.372C168.561 51.228 168.601 51.028 168.601 50.772V41.394C168.601 41.174 168.564 40.987 168.489 40.831C168.414 40.669 168.251 40.535 168.001 40.429C167.775 40.3391 167.539 40.273 167.299 40.232C167.085 40.183 166.869 40.1424 166.652 40.11V39.38H173.99C175.708 39.38 176.992 39.654 177.841 40.204C178.691 40.747 179.116 41.581 179.116 42.705ZM175.461 43.183C175.461 42.183 175.258 41.443 174.852 40.963C174.452 40.475 173.737 40.232 172.706 40.232H171.928V46.069H172.322C173.346 46.069 174.124 45.835 174.655 45.366C175.192 44.891 175.461 44.164 175.461 43.183ZM195.375 52.674H190.277C189.571 51.5806 188.837 50.5059 188.075 49.451C187.379 48.5046 186.654 47.5798 185.901 46.678H185.385V50.716C185.385 50.941 185.426 51.131 185.507 51.287C185.595 51.444 185.757 51.575 185.994 51.681C186.113 51.731 186.297 51.784 186.547 51.841C186.804 51.891 187.022 51.925 187.203 51.943V52.674H180.109V51.944L180.821 51.868C181.121 51.831 181.334 51.788 181.459 51.738C181.696 51.638 181.855 51.512 181.937 51.362C182.018 51.206 182.059 51.01 182.059 50.772V41.394C182.059 41.169 182.024 40.981 181.955 40.831C181.887 40.681 181.721 40.551 181.459 40.438C181.259 40.357 181.021 40.288 180.747 40.232C180.535 40.1865 180.323 40.1458 180.109 40.11V39.38H187.569C189.237 39.38 190.502 39.642 191.364 40.166C192.233 40.685 192.667 41.472 192.667 42.527C192.667 43.457 192.398 44.207 191.861 44.776C191.33 45.338 190.518 45.778 189.424 46.096L190.905 48.008C191.49 48.7524 192.08 49.4924 192.676 50.228C192.87 50.472 193.132 50.772 193.463 51.128C193.801 51.478 194.098 51.694 194.354 51.775C194.497 51.819 194.679 51.855 194.897 51.887C195.122 51.918 195.281 51.937 195.375 51.943V52.674ZM188.993 42.79C188.993 41.903 188.743 41.256 188.244 40.85C187.75 40.438 187.044 40.232 186.126 40.232H185.385V45.797H186.098C187.016 45.797 187.728 45.557 188.234 45.076C188.74 44.595 188.993 43.833 188.993 42.79Z" fill="white"/>
<path d="M209.854 52.673H202.61V51.943C203.01 51.9085 203.408 51.8487 203.8 51.764C204.256 51.664 204.484 51.543 204.484 51.399C204.483 51.3422 204.477 51.2855 204.465 51.23C204.452 51.1426 204.427 51.0574 204.39 50.977L203.257 48.223H198.665C198.542 48.5213 198.423 48.8213 198.308 49.123C198.183 49.466 198.074 49.772 197.98 50.04C197.862 50.39 197.79 50.643 197.765 50.8C197.75 50.9084 197.741 51.0176 197.737 51.127C197.737 51.327 197.887 51.499 198.187 51.643C198.493 51.78 198.999 51.88 199.705 51.943V52.673H194.251V51.943C194.457 51.93 194.688 51.899 194.944 51.849C195.162 51.8096 195.371 51.7336 195.563 51.624C195.819 51.474 196.034 51.29 196.209 51.071C196.39 50.852 196.54 50.593 196.659 50.293C197.384 48.538 198.109 46.78 198.833 45.019L201.251 39.191H203.125C204.094 41.5668 205.053 43.9468 206.002 46.331C206.576 47.7864 207.167 49.2352 207.774 50.677C207.855 50.865 207.958 51.037 208.083 51.193C208.382 51.531 208.783 51.7615 209.226 51.849C209.457 51.899 209.667 51.929 209.854 51.942V52.673ZM202.872 47.295L200.942 42.479L199.039 47.295H202.872ZM216.957 53.029C216.024 53.0363 215.098 52.8778 214.221 52.561C213.395 52.2573 212.639 51.7888 212 51.184C211.381 50.596 210.894 49.872 210.538 49.01C210.182 48.142 210.004 47.189 210.004 46.152C210.004 45.122 210.182 44.169 210.538 43.294C210.884 42.4372 211.401 41.6595 212.056 41.008C212.711 40.3661 213.493 39.8684 214.352 39.547C215.266 39.1932 216.239 39.0151 217.22 39.022C217.957 39.022 218.629 39.112 219.235 39.294C219.767 39.4398 220.282 39.6409 220.772 39.894L221.353 39.378H222.168L222.252 44.231H221.428C220.959 42.751 220.397 41.664 219.741 40.971C219.085 40.278 218.285 39.931 217.342 39.931C216.167 39.931 215.274 40.449 214.661 41.486C214.049 42.516 213.743 43.966 213.743 45.834C213.743 46.889 213.846 47.792 214.052 48.541C214.265 49.285 214.54 49.884 214.877 50.341C215.239 50.815 215.667 51.165 216.161 51.39C216.654 51.608 217.201 51.718 217.801 51.718C218.676 51.718 219.453 51.48 220.134 51.005C220.822 50.531 221.446 49.812 222.009 48.85L222.815 49.338C222.562 49.8624 222.254 50.3585 221.896 50.818C221.553 51.249 221.156 51.621 220.706 51.933C220.202 52.2815 219.65 52.5532 219.066 52.739C218.472 52.932 217.77 53.029 216.957 53.029ZM236.084 43.182H235.363C235.169 42.614 234.857 42.005 234.426 41.355C234.001 40.705 233.607 40.355 233.245 40.305C233.045 40.281 232.798 40.259 232.504 40.24C232.251 40.2228 231.998 40.2134 231.745 40.212H231.305V50.64C231.305 50.865 231.346 51.065 231.427 51.24C231.508 51.408 231.667 51.543 231.905 51.643C232.048 51.699 232.27 51.758 232.57 51.821C232.876 51.877 233.136 51.917 233.348 51.942V52.673H225.935V51.943C226.116 51.923 226.369 51.899 226.694 51.867C227.025 51.83 227.25 51.787 227.369 51.737C227.613 51.637 227.775 51.502 227.856 51.333C227.938 51.165 227.978 50.965 227.978 50.733V40.213H227.538C227.325 40.213 227.072 40.223 226.779 40.241C226.485 40.26 226.238 40.281 226.038 40.307C225.676 40.357 225.279 40.707 224.848 41.357C224.423 42.006 224.114 42.615 223.92 43.183H223.199V39.379H236.084V43.182ZM244.181 52.673H236.806V51.943L237.546 51.886C237.877 51.861 238.105 51.824 238.23 51.774C238.462 51.68 238.618 51.558 238.699 51.408C238.786 51.252 238.83 51.055 238.83 50.818V41.393C238.83 41.18 238.79 40.993 238.708 40.83C238.627 40.668 238.468 40.537 238.23 40.437C238.014 40.3552 237.792 40.2923 237.565 40.249C237.315 40.1884 237.061 40.1417 236.806 40.109V39.379H244.181V40.109C243.946 40.1333 243.712 40.1613 243.478 40.193C243.237 40.2161 242.998 40.263 242.766 40.333C242.522 40.415 242.36 40.543 242.279 40.718C242.195 40.8997 242.153 41.0979 242.157 41.298V50.715C242.157 50.94 242.198 51.133 242.279 51.295C242.366 51.452 242.529 51.58 242.766 51.68C242.897 51.736 243.113 51.792 243.413 51.849C243.719 51.899 243.975 51.929 244.181 51.942V52.673ZM252.4 53.029C251.467 53.0364 250.54 52.8779 249.663 52.561C248.837 52.257 248.082 51.7886 247.442 51.184C246.824 50.596 246.337 49.872 245.981 49.01C245.624 48.142 245.446 47.189 245.446 46.152C245.446 45.122 245.624 44.169 245.981 43.294C246.327 42.4372 246.844 41.6595 247.499 41.008C248.154 40.3659 248.936 39.8682 249.795 39.547C250.709 39.1932 251.682 39.0151 252.662 39.022C253.399 39.022 254.071 39.112 254.677 39.294C255.209 39.4398 255.724 39.6409 256.214 39.894L256.795 39.378H257.61L257.695 44.231H256.87C256.401 42.751 255.839 41.664 255.183 40.971C254.527 40.278 253.727 39.931 252.784 39.931C251.61 39.931 250.716 40.449 250.104 41.486C249.492 42.516 249.186 43.966 249.186 45.834C249.186 46.889 249.289 47.792 249.495 48.541C249.707 49.285 249.982 49.884 250.319 50.341C250.682 50.815 251.11 51.165 251.603 51.39C252.121 51.6134 252.679 51.7251 253.243 51.718C254.118 51.718 254.896 51.48 255.577 51.005C256.264 50.531 256.889 49.812 257.451 48.85L258.257 49.338C258.004 49.8622 257.696 50.3582 257.339 50.818C256.998 51.2458 256.597 51.6214 256.148 51.933C255.644 52.2817 255.092 52.5534 254.508 52.739C253.915 52.932 253.212 53.029 252.4 53.029ZM110.755 14.204C110.576 14.211 110.303 14.262 109.934 14.357C109.565 14.453 109.301 14.551 109.142 14.653C108.913 14.812 108.757 15.117 108.674 15.569C108.598 16.02 108.56 16.593 108.56 17.286V27.197H107.73L99.524 16.122V23.105C99.524 23.887 99.572 24.488 99.667 24.908C99.769 25.328 99.921 25.627 100.125 25.805C100.271 25.945 100.573 26.075 101.031 26.195C101.489 26.317 101.792 26.38 101.938 26.387V27.064H96.385V26.387C96.556 26.374 96.845 26.313 97.253 26.205C97.66 26.091 97.915 25.989 98.016 25.9C98.239 25.722 98.392 25.452 98.474 25.09C98.557 24.72 98.598 24.094 98.598 23.21V16.542C98.598 16.249 98.548 15.956 98.446 15.664C98.344 15.371 98.207 15.146 98.036 14.987C97.806 14.777 97.495 14.599 97.1 14.453C96.712 14.3 96.397 14.217 96.156 14.204V13.527H100.02L107.634 23.849V17.409C107.634 16.621 107.583 16.017 107.482 15.597C107.38 15.171 107.234 14.888 107.043 14.748C106.865 14.628 106.572 14.51 106.165 14.395C105.764 14.281 105.459 14.217 105.249 14.205V13.527H110.755V14.204ZM122.796 15.13C123.394 15.753 123.862 16.507 124.199 17.39C124.536 18.268 124.705 19.241 124.705 20.31C124.705 21.385 124.533 22.36 124.189 23.238C123.872 24.0759 123.384 24.8392 122.758 25.48C122.174 26.0853 121.472 26.5657 120.697 26.892C119.906 27.2245 119.055 27.3932 118.197 27.388C117.299 27.3966 116.408 27.2178 115.583 26.863C114.804 26.5186 114.105 26.0152 113.531 25.385C112.959 24.768 112.507 24.021 112.176 23.143C111.848 22.2348 111.683 21.2756 111.69 20.31C111.69 19.21 111.861 18.23 112.205 17.372C112.528 16.5388 113.011 15.7771 113.627 15.13C114.214 14.5142 114.922 14.027 115.707 13.699C116.496 13.3696 117.342 13.2009 118.197 13.203C119.094 13.203 119.94 13.371 120.735 13.708C121.53 14.045 122.217 14.519 122.796 15.13ZM121.374 24.727C121.742 24.1207 122.003 23.4562 122.147 22.762C122.313 22.03 122.395 21.212 122.395 20.31C122.395 19.381 122.303 18.53 122.119 17.753C121.941 16.977 121.677 16.316 121.327 15.769C120.977 15.229 120.538 14.809 120.01 14.509C119.482 14.204 118.878 14.052 118.197 14.052C117.434 14.052 116.785 14.227 116.251 14.576C115.716 14.926 115.28 15.394 114.943 15.979C114.625 16.539 114.387 17.194 114.228 17.944C114.075 18.694 113.999 19.483 113.999 20.31C113.999 21.226 114.081 22.052 114.247 22.79C114.395 23.4844 114.659 24.1488 115.029 24.755C115.373 25.315 115.805 25.754 116.327 26.072C116.848 26.383 117.472 26.539 118.197 26.539C118.878 26.539 119.492 26.38 120.039 26.062C120.591 25.7389 121.051 25.2792 121.374 24.727ZM139.59 27.064H135.945C135.24 25.9524 134.508 24.858 133.75 23.782C133.067 22.8144 132.361 21.8634 131.632 20.93H130.248V25.223C130.248 25.445 130.283 25.643 130.353 25.814C130.423 25.98 130.573 26.107 130.802 26.196C130.916 26.24 131.117 26.282 131.403 26.32C131.689 26.358 131.931 26.38 132.128 26.387V27.064H126.403V26.387C126.556 26.374 126.775 26.352 127.061 26.32C127.354 26.288 127.558 26.247 127.672 26.196C127.847 26.1274 127.993 25.9987 128.082 25.833C128.171 25.674 128.216 25.471 128.216 25.223V15.435C128.216 15.212 128.184 15.015 128.12 14.844C128.057 14.672 127.907 14.541 127.672 14.453C127.47 14.3848 127.263 14.3337 127.052 14.3C126.838 14.2548 126.621 14.2227 126.403 14.204V13.527H132.653C133.225 13.527 133.763 13.587 134.265 13.708C134.768 13.823 135.223 14.01 135.63 14.271C136.024 14.526 136.339 14.859 136.574 15.273C136.81 15.68 136.927 16.173 136.927 16.752C136.927 17.273 136.848 17.734 136.689 18.135C136.53 18.535 136.295 18.882 135.983 19.175C135.676 19.4626 135.329 19.7035 134.952 19.89C134.552 20.087 134.11 20.256 133.626 20.396C134.186 21.1349 134.739 21.879 135.286 22.628C135.732 23.232 136.275 23.967 136.918 24.832C137.198 25.213 137.449 25.496 137.672 25.681C137.901 25.859 138.127 26.005 138.349 26.119C138.515 26.202 138.721 26.266 138.969 26.31C139.218 26.355 139.424 26.38 139.59 26.387V27.064ZM134.571 16.971C134.571 16.151 134.335 15.501 133.865 15.025C133.394 14.541 132.729 14.3 131.87 14.3H130.248V20.11H131.498C132.376 20.11 133.108 19.83 133.693 19.27C134.278 18.704 134.571 17.938 134.571 16.97V16.971ZM151.126 17.2H150.467C150.39 16.9195 150.285 16.6477 150.152 16.389C150.01 16.0777 149.844 15.7778 149.656 15.492C149.477 15.2137 149.265 14.9576 149.026 14.729C148.804 14.507 148.588 14.379 148.378 14.348C148.131 14.3184 147.882 14.2991 147.633 14.29C147.334 14.278 147.058 14.271 146.803 14.271H146.25V25.1C146.25 25.31 146.294 25.504 146.383 25.682C146.472 25.853 146.628 25.987 146.851 26.082C146.965 26.127 147.204 26.187 147.567 26.263C147.935 26.34 148.222 26.381 148.425 26.388V27.065H142.032V26.388C142.21 26.375 142.481 26.349 142.843 26.311C143.212 26.273 143.467 26.225 143.607 26.168C143.817 26.085 143.969 25.968 144.065 25.815C144.166 25.656 144.217 25.446 144.217 25.185V14.272H143.664C143.467 14.272 143.222 14.279 142.929 14.292C142.649 14.2971 142.369 14.3158 142.09 14.348C141.88 14.374 141.66 14.501 141.431 14.73C141.2 14.9635 140.992 15.219 140.811 15.493C140.618 15.784 140.448 16.0904 140.305 16.409C140.183 16.6645 140.081 16.9294 140 17.201H139.332V13.528H151.126V17.2ZM166.24 27.064H160.62V26.387L161.278 26.329C161.571 26.304 161.771 26.266 161.879 26.215C162.054 26.1517 162.202 26.0303 162.299 25.871C162.388 25.712 162.433 25.509 162.433 25.261V20.443H156.068V25.156C156.068 25.379 156.103 25.566 156.173 25.719C156.25 25.871 156.396 26.005 156.612 26.119C156.72 26.177 156.911 26.234 157.185 26.291C157.465 26.348 157.684 26.381 157.843 26.387V27.064H152.223V26.387L152.881 26.329C153.174 26.304 153.374 26.266 153.482 26.215C153.657 26.1517 153.805 26.0303 153.902 25.871C153.991 25.712 154.036 25.509 154.036 25.261V15.492C154.036 15.289 153.994 15.104 153.912 14.939C153.82 14.7592 153.668 14.6175 153.482 14.539C153.28 14.4452 153.069 14.3715 152.853 14.319C152.647 14.2616 152.436 14.2231 152.223 14.204V13.527H157.843V14.204C157.622 14.2158 157.402 14.2446 157.185 14.29C156.93 14.341 156.739 14.389 156.612 14.433C156.396 14.51 156.25 14.637 156.173 14.815C156.103 14.993 156.068 15.187 156.068 15.397V19.594H162.433V15.492C162.433 15.289 162.391 15.104 162.309 14.939C162.217 14.7592 162.065 14.6175 161.879 14.539C161.677 14.4454 161.466 14.3717 161.249 14.319C161.043 14.2615 160.833 14.223 160.62 14.204V13.527H166.24V14.204C166.018 14.2159 165.798 14.2446 165.581 14.29C165.327 14.341 165.136 14.389 165.009 14.433C164.793 14.51 164.646 14.637 164.57 14.815C164.5 14.993 164.465 15.187 164.465 15.397V25.156C164.465 25.379 164.5 25.566 164.57 25.719C164.646 25.871 164.793 26.005 165.009 26.119C165.117 26.177 165.308 26.234 165.581 26.291C165.861 26.348 166.081 26.381 166.24 26.387V27.064ZM183.377 16.914H182.661C182.527 16.411 182.248 15.874 181.821 15.301C181.402 14.729 180.998 14.414 180.61 14.357C180.375 14.3285 180.139 14.3095 179.903 14.3C179.598 14.2862 179.292 14.2795 178.987 14.28H176.717V19.718H178.272C178.743 19.718 179.108 19.671 179.369 19.575C179.63 19.474 179.853 19.321 180.037 19.117C180.164 18.977 180.279 18.761 180.381 18.469C180.489 18.169 180.559 17.852 180.59 17.515H181.316V22.828H180.59C180.562 22.5031 180.495 22.1828 180.39 21.874C180.282 21.518 180.164 21.261 180.037 21.102C179.852 20.8703 179.598 20.7033 179.312 20.625C178.974 20.5289 178.623 20.4837 178.272 20.491H176.717V25.156C176.717 25.366 176.758 25.553 176.841 25.719C176.923 25.884 177.07 26.018 177.28 26.119C177.375 26.164 177.582 26.218 177.9 26.282C178.218 26.345 178.46 26.38 178.625 26.387V27.064H172.757V26.387C172.948 26.374 173.202 26.355 173.52 26.329C173.838 26.297 174.045 26.259 174.14 26.215C174.315 26.1462 174.461 26.0176 174.551 25.852C174.644 25.6692 174.69 25.466 174.684 25.261V15.492C174.684 15.282 174.649 15.098 174.579 14.939C174.509 14.774 174.363 14.64 174.14 14.539C173.917 14.4395 173.684 14.3657 173.444 14.319C173.218 14.2651 172.988 14.2267 172.757 14.204V13.527H183.377V16.914ZM195.457 23.038L195.17 27.064H184.588V26.387C184.741 26.374 184.961 26.352 185.247 26.32C185.539 26.288 185.743 26.247 185.858 26.196C186.033 26.1268 186.178 25.9983 186.268 25.833C186.357 25.674 186.401 25.471 186.401 25.223V15.53C186.401 15.314 186.363 15.123 186.287 14.958C186.217 14.793 186.074 14.659 185.858 14.558C185.659 14.4627 185.451 14.3889 185.237 14.338C185.026 14.2714 184.808 14.2265 184.588 14.204V13.527H190.304V14.204C190.126 14.211 189.894 14.243 189.607 14.3C189.401 14.3383 189.197 14.3891 188.997 14.452C188.899 14.482 188.808 14.5324 188.731 14.5999C188.653 14.6675 188.591 14.7507 188.548 14.844C188.471 15.0316 188.433 15.2324 188.434 15.435V24.526C188.434 24.946 188.453 25.274 188.491 25.509C188.524 25.7163 188.628 25.9055 188.787 26.043C188.933 26.158 189.149 26.233 189.436 26.273C189.728 26.303 190.135 26.32 190.657 26.32C190.892 26.32 191.137 26.313 191.392 26.3C191.646 26.288 191.888 26.262 192.117 26.224C192.34 26.186 192.543 26.135 192.728 26.072C192.918 26.002 193.058 25.916 193.147 25.814C193.408 25.522 193.71 25.08 194.054 24.488C194.404 23.89 194.645 23.407 194.779 23.038H195.457ZM207.317 15.13C207.915 15.753 208.382 16.507 208.72 17.39C209.057 18.268 209.225 19.241 209.225 20.31C209.225 21.385 209.054 22.36 208.71 23.238C208.392 24.0757 207.905 24.8389 207.279 25.48C206.695 26.0853 205.993 26.5657 205.218 26.892C204.427 27.2244 203.576 27.3931 202.718 27.388C201.819 27.3966 200.929 27.2178 200.103 26.863C199.324 26.5186 198.625 26.0152 198.052 25.385C197.479 24.768 197.028 24.021 196.697 23.143C196.369 22.2349 196.204 21.2757 196.21 20.31C196.21 19.21 196.382 18.23 196.726 17.372C197.049 16.5391 197.532 15.7774 198.147 15.13C198.734 14.5145 199.442 14.0272 200.227 13.699C201.016 13.3697 201.863 13.201 202.718 13.203C203.615 13.203 204.461 13.371 205.256 13.708C206.051 14.045 206.738 14.519 207.317 15.13ZM205.895 24.727C206.262 24.1205 206.524 23.4561 206.668 22.762C206.833 22.03 206.916 21.212 206.916 20.31C206.916 19.381 206.824 18.53 206.639 17.753C206.461 16.977 206.197 16.316 205.847 15.769C205.518 15.2475 205.066 14.8148 204.531 14.509C204.003 14.204 203.398 14.052 202.718 14.052C201.954 14.052 201.306 14.227 200.771 14.576C200.237 14.926 199.801 15.394 199.464 15.979C199.146 16.539 198.907 17.194 198.748 17.944C198.596 18.694 198.519 19.483 198.519 20.31C198.519 21.226 198.602 22.052 198.768 22.79C198.916 23.4844 199.18 24.1488 199.55 24.755C199.893 25.315 200.326 25.754 200.848 26.072C201.369 26.383 201.993 26.539 202.718 26.539C203.398 26.539 204.012 26.38 204.559 26.062C205.111 25.739 205.572 25.2792 205.895 24.727ZM224.11 27.064H220.465C219.761 25.9522 219.029 24.8578 218.271 23.782C217.588 22.8144 216.882 21.8634 216.153 20.93H214.769V25.223C214.769 25.445 214.804 25.643 214.874 25.814C214.944 25.98 215.093 26.107 215.322 26.196C215.437 26.24 215.637 26.282 215.924 26.32C216.21 26.358 216.452 26.38 216.649 26.387V27.064H210.924V26.387C211.076 26.374 211.296 26.352 211.582 26.32C211.875 26.288 212.078 26.247 212.193 26.196C212.368 26.1271 212.513 25.9985 212.603 25.833C212.692 25.674 212.737 25.471 212.737 25.223V15.435C212.737 15.212 212.705 15.015 212.641 14.844C212.578 14.672 212.428 14.541 212.193 14.453C211.991 14.3848 211.784 14.3337 211.573 14.3C211.359 14.2548 211.142 14.2227 210.924 14.204V13.527H217.174C217.746 13.527 218.284 13.587 218.786 13.708C219.289 13.823 219.743 14.01 220.151 14.271C220.545 14.526 220.86 14.859 221.095 15.273C221.331 15.68 221.448 16.173 221.448 16.752C221.448 17.273 221.369 17.734 221.21 18.135C221.055 18.5297 220.814 18.885 220.504 19.175C220.197 19.4623 219.85 19.7032 219.473 19.89C219.047 20.097 218.603 20.2663 218.147 20.396C218.707 21.1349 219.26 21.879 219.807 22.628C220.252 23.232 220.796 23.967 221.439 24.832C221.719 25.213 221.97 25.496 222.192 25.681C222.421 25.859 222.647 26.005 222.87 26.119C223.067 26.2116 223.275 26.2759 223.49 26.31C223.738 26.355 223.945 26.38 224.11 26.387V27.064ZM219.091 16.971C219.091 16.151 218.856 15.501 218.385 15.025C217.915 14.541 217.25 14.3 216.391 14.3H214.769V20.11H216.019C216.897 20.11 217.628 19.83 218.214 19.27C218.799 18.704 219.091 17.938 219.091 16.97V16.971ZM230.561 27.064H224.463V26.387L225.208 26.329C225.532 26.304 225.761 26.266 225.895 26.215C226.105 26.132 226.257 26.021 226.353 25.881C226.448 25.735 226.496 25.534 226.496 25.28V15.473C226.502 15.2832 226.467 15.0943 226.391 14.92C226.321 14.767 226.155 14.64 225.895 14.538C225.659 14.4486 225.417 14.3784 225.17 14.328C224.938 14.2674 224.702 14.2259 224.463 14.204V13.527H230.561V14.204C230.324 14.2147 230.088 14.2404 229.855 14.281C229.581 14.319 229.342 14.37 229.139 14.433C228.897 14.51 228.735 14.633 228.652 14.805C228.568 14.9842 228.526 15.1801 228.528 15.378V25.175C228.528 25.385 228.573 25.573 228.662 25.738C228.757 25.897 228.916 26.024 229.139 26.119C229.272 26.17 229.489 26.228 229.788 26.291C230.093 26.348 230.351 26.381 230.561 26.387V27.064ZM245.226 20.377C245.226 21.527 245.01 22.527 244.577 23.372C244.145 24.218 243.582 24.912 242.889 25.452C242.189 25.992 241.403 26.396 240.532 26.663C239.66 26.93 238.76 27.063 237.831 27.063H232.221V26.387C232.405 26.387 232.644 26.371 232.936 26.339C233.235 26.301 233.433 26.259 233.528 26.215C233.703 26.1464 233.849 26.0178 233.938 25.852C234.027 25.687 234.072 25.49 234.072 25.261V15.492C234.072 15.276 234.034 15.082 233.957 14.91C233.887 14.739 233.744 14.602 233.528 14.5C233.325 14.4026 233.11 14.332 232.889 14.29C232.693 14.2502 232.496 14.2215 232.297 14.204V13.527H238.213C239.027 13.527 239.829 13.654 240.618 13.909C241.355 14.1316 242.051 14.4728 242.679 14.919C243.479 15.4915 244.122 16.2564 244.549 17.143C245 18.058 245.226 19.136 245.226 20.377ZM242.889 20.367C242.889 19.457 242.768 18.637 242.526 17.906C242.302 17.2008 241.942 16.5462 241.467 15.979C241.024 15.4545 240.47 15.0345 239.845 14.749C239.209 14.449 238.499 14.299 237.717 14.299C237.456 14.299 237.16 14.306 236.83 14.319C236.588 14.3231 236.346 14.3294 236.104 14.338V24.746C236.104 25.325 236.273 25.726 236.61 25.948C236.947 26.17 237.466 26.282 238.165 26.282C238.973 26.282 239.679 26.139 240.284 25.852C240.866 25.5841 241.371 25.1742 241.753 24.66C242.157 24.1051 242.449 23.4767 242.612 22.81C242.796 22.103 242.889 21.29 242.889 20.367ZM259.52 27.064H253.881V26.387C254.377 26.355 254.787 26.291 255.111 26.196C255.442 26.1 255.608 25.983 255.608 25.843C255.608 25.786 255.601 25.716 255.589 25.633C255.578 25.5577 255.559 25.4838 255.531 25.413L254.405 22.38H249.663C249.508 22.7647 249.362 23.1528 249.224 23.544C249.116 23.874 249.018 24.18 248.928 24.459C248.846 24.733 248.788 24.956 248.757 25.127C248.729 25.2653 248.713 25.4059 248.709 25.547C248.709 25.802 248.909 25.999 249.31 26.138C249.711 26.278 250.163 26.361 250.665 26.387V27.064H245.57V26.387C245.735 26.374 245.942 26.339 246.19 26.282C246.438 26.218 246.642 26.135 246.801 26.034C247.055 25.862 247.252 25.684 247.392 25.499C247.532 25.309 247.669 25.048 247.803 24.717C248.483 23.019 249.234 21.111 250.054 18.993C250.785 17.107 251.516 15.2213 252.249 13.336H253.012L257.526 25.013C257.621 25.261 257.729 25.461 257.85 25.613C257.971 25.767 258.139 25.916 258.356 26.063C258.502 26.151 258.693 26.228 258.928 26.291C259.164 26.348 259.361 26.381 259.52 26.387V27.064ZM254.062 21.531L252.01 16.284L249.997 21.531H254.062Z" fill="white"/>
<path fill-rule="evenodd" clip-rule="evenodd" d="M259.392 58.96H96.165V57.947H259.392V58.96ZM259.392 33.49H96.165V32.477H259.392V33.49Z" fill="white"/>
</svg>
